<svg width="560" height="25" xmlns="http://www.w3.org/2000/svg">
 <!-- Created with Method Draw - http://github.com/duopixel/Method-Draw/ -->

 <g>
  <title>background</title>
  <rect fill="none" id="canvas_background" height="27" width="562" y="-1" x="-1"/>
 </g>
 <g>
  <title>Layer 1</title>
  <g stroke="null" id="svg_5">
   <path stroke="null" id="svg_4" d="m539.14234,12.13006l-6.76332,6.59682l-11.41979,0l-14.1108,-13.90944l-0.02033,0.01882l-0.01679,-0.01882l-8.10397,7.37479l-126.02506,0l0.02386,0.02209l-5.88311,0l0.02386,-0.02209l3.18414,0l-2.9146,-2.89347l4.86768,-4.48132l-9.72476,0l4.85708,4.48132l-2.92079,2.89347l-72.21455,0l-4.14743,3.63463l-8.17201,7.74701l-5.4483,-4.89117l-32.04115,0.04418l-11.18736,-10.66175l-29.7222,0l-6.39657,5.76486l-65.62887,-0.03109l-5.09922,-4.49687l-7.64353,6.78252l-2.55491,-2.28565l-123.70699,0.02618l0,-14.75531l559.41224,0l0,13.0603l-10.50246,0zm-61.63256,-3.0759l1.5333,0l0,-4.23672l-1.5333,0l0,4.23672zm-2.31895,0l1.52888,0l0,-4.23672l-1.52888,0l0,4.23672zm-10.71279,0l1.52888,0l0,-4.23672l-1.52888,0l0,4.23672zm-18.38107,0l4.59195,0l0,-4.23672l-4.59195,0l0,4.23672zm-183.38382,5.32474l1.5333,0l0,-1.41115l-1.5333,0l0,1.41115zm-5.86897,0l1.5333,0l0,-4.2359l-1.5333,0l0,4.2359zm-11.87227,0l1.53242,0l0,-1.41115l-1.53242,0l0,1.41115zm0,-2.82557l1.53242,0l0,-1.41033l-1.53242,0l0,1.41033z" fill="rgb(252, 238, 10)" fill-rule="evenodd"/>
  </g>
  <path stroke="#fcee0a" transform="rotate(90 556.39501953125,0.7211198806763265) " id="svg_6" d="m550.5813,5.83738l0,-10.23256l11.6279,10.23256l-11.6279,0z" stroke-width="4" fill="#fcee0a"/>
 </g>
</svg>